<mxfile host="app.diagrams.net" modified="2023-10-24T15:10:46.329Z" agent="Mozilla/5.0 (Macintosh; Intel Mac OS X 10_15_7) AppleWebKit/537.36 (KHTML, like Gecko) Chrome/117.0.0.0 Safari/537.36" version="22.0.6" etag="hEeshA9RlO0U0RodK35i" type="github">
  <diagram name="Pagina-1" id="9sMNS6a68SLmsTCxzlUW">
    <mxGraphModel>
      <root>
        <mxCell id="0" />
        <mxCell id="1" parent="0" />
      </root>
    </mxGraphModel>
  </diagram>
</mxfile>
